<?xml version="1.0" standalone="no"?>
<!DOCTYPE svg PUBLIC "-//W3C//DTD SVG 20010904//EN"
 "http://www.w3.org/TR/2001/REC-SVG-20010904/DTD/svg10.dtd">
<svg version="1.0" xmlns="http://www.w3.org/2000/svg"
 width="1024.000000pt" height="1024.000000pt" viewBox="0 0 1024.000000 1024.000000"
 preserveAspectRatio="xMidYMid meet">
<metadata>
Created by potrace 1.14, written by Peter Selinger 2001-2017
</metadata>
<g transform="translate(0.000000,1024.000000) scale(0.100000,-0.100000)"
fill="#000000" stroke="none">
<path d="M5037 8659 c-38 -5 -102 -20 -143 -34 -307 -103 -537 -322 -633 -604
-57 -165 -56 -157 -56 -821 0 -655 1 -644 -52 -819 -63 -213 -165 -406 -353
-671 -418 -589 -587 -866 -663 -1086 -68 -197 -107 -427 -107 -635 0 -74 -3
-88 -21 -105 -11 -10 -58 -75 -103 -144 -125 -189 -159 -212 -396 -260 -266
-55 -330 -118 -338 -330 -2 -58 1 -173 6 -255 13 -176 6 -247 -38 -401 -40
-139 -42 -211 -7 -287 31 -68 78 -104 189 -147 88 -34 482 -133 698 -175 135
-27 206 -49 465 -145 190 -71 310 -100 432 -107 122 -7 204 7 290 49 113 55
248 209 291 331 19 56 36 67 132 90 158 38 527 50 733 22 153 -20 346 -69 466
-118 l104 -42 21 -66 c40 -122 107 -195 241 -259 101 -49 174 -64 300 -63 176
1 280 41 420 163 178 154 506 397 775 575 331 219 408 285 435 378 34 119 -11
187 -270 411 -149 127 -190 201 -224 393 -22 130 -53 203 -106 256 -38 37
-111 67 -163 67 -20 0 -23 4 -19 22 2 13 15 70 28 128 30 139 33 391 6 520
-72 338 -276 713 -740 1365 -255 357 -383 597 -426 795 -20 93 -32 296 -41
670 -9 407 -17 488 -67 659 -84 294 -283 523 -534 618 -145 55 -383 82 -532
62z m502 -1023 c106 -54 172 -168 179 -307 5 -107 -11 -166 -72 -269 -72 -119
-65 -114 -122 -92 -27 10 -57 22 -67 25 -17 7 -16 10 11 35 63 59 95 167 73
248 -48 178 -242 200 -325 38 -27 -55 -37 -119 -26 -170 6 -26 9 -48 7 -50 -2
-2 -31 5 -64 17 -55 18 -62 23 -67 52 -8 45 10 180 34 252 66 199 275 304 439
221z m-954 -60 c23 -14 54 -43 68 -65 43 -65 79 -185 85 -283 l5 -86 -42 -21
-41 -21 0 66 c0 91 -17 141 -66 191 -34 36 -47 43 -78 43 -78 0 -128 -72 -128
-185 -1 -74 31 -154 75 -191 32 -27 32 -28 -16 -55 -27 -15 -51 11 -92 96 -41
87 -58 160 -59 250 0 132 46 239 117 270 52 23 124 19 172 -9z m399 -457 c61
-11 536 -183 624 -225 71 -35 87 -62 86 -145 -2 -97 -23 -133 -111 -188 -40
-25 -125 -88 -190 -139 -226 -177 -391 -235 -578 -203 -95 17 -157 52 -229
128 -33 36 -94 101 -135 144 -41 44 -72 79 -69 79 3 0 45 -22 94 -49 140 -78
228 -104 354 -105 187 -1 350 59 585 218 72 49 143 95 158 102 34 18 27 34
-15 34 -21 0 -48 -15 -92 -49 -154 -122 -320 -209 -462 -242 -127 -29 -264
-24 -377 15 -105 35 -316 152 -329 182 -14 30 10 95 57 158 78 101 347 266
465 285 78 12 99 12 164 0z m721 -724 c55 -295 107 -469 209 -704 35 -80 72
-182 82 -225 14 -65 25 -89 60 -132 59 -73 115 -170 173 -300 133 -298 200
-577 201 -836 l0 -108 40 0 c39 0 41 2 70 60 16 32 42 99 56 147 23 76 27 106
27 218 0 274 -92 496 -292 709 -69 73 -39 59 51 -24 184 -168 300 -402 322
-650 9 -95 -12 -244 -52 -368 l-29 -91 76 -5 c138 -11 291 -44 369 -81 39 -19
72 -36 72 -38 0 -2 -31 7 -70 20 -148 50 -487 54 -637 8 -68 -20 -129 -76
-138 -127 -6 -33 -12 -38 -41 -44 -18 -3 -54 -19 -79 -35 -91 -58 -109 -139
-121 -552 l-6 -228 -80 -85 c-226 -239 -468 -357 -800 -393 -342 -38 -691 30
-906 173 -82 56 -94 71 -62 81 12 4 47 32 79 63 66 66 87 121 78 202 -12 102
-49 141 -326 348 -299 223 -434 357 -500 495 -67 140 -86 235 -86 427 0 184
13 265 70 437 41 121 81 204 146 298 46 66 149 178 149 161 0 -4 -25 -39 -55
-78 -101 -129 -167 -269 -213 -448 -25 -96 -27 -121 -26 -295 0 -179 2 -195
27 -270 36 -106 47 -122 47 -68 0 79 30 278 61 403 81 331 231 683 344 810 12
14 33 57 45 95 13 39 55 135 95 215 40 80 86 187 103 237 39 118 95 357 125
541 14 78 27 145 30 148 2 3 36 -30 73 -73 178 -200 225 -234 356 -254 93 -15
177 -7 275 26 103 34 186 85 333 201 66 53 146 111 178 130 68 42 61 52 97
-141z m-2400 -2521 c59 -27 141 -114 230 -244 43 -63 156 -225 250 -360 94
-135 224 -323 289 -417 65 -95 150 -210 190 -255 108 -125 133 -160 168 -235
31 -64 33 -74 33 -183 0 -111 -1 -118 -34 -184 -43 -89 -159 -212 -238 -254
-78 -41 -163 -56 -276 -49 -122 8 -238 39 -497 136 -164 60 -252 87 -370 111
-257 52 -639 149 -718 182 -90 37 -129 69 -154 126 -27 61 -25 114 11 224 45
141 55 243 45 443 -10 216 -9 276 11 335 30 91 88 123 315 175 83 19 169 44
192 56 70 36 139 110 191 206 69 127 107 165 189 195 61 21 117 19 173 -8z
m2978 -181 c12 -163 62 -307 130 -376 82 -81 257 -76 412 13 131 76 217 170
317 349 l53 93 102 -4 c91 -4 107 -8 149 -34 62 -38 108 -106 122 -180 7 -33
19 -93 27 -134 8 -41 31 -109 52 -150 38 -78 51 -92 284 -315 151 -144 177
-208 120 -296 -35 -56 -111 -113 -426 -321 -254 -168 -492 -344 -688 -511
-138 -116 -167 -136 -247 -165 -90 -33 -239 -41 -341 -18 -140 31 -259 107
-314 200 -47 81 -73 257 -55 382 6 44 31 169 56 279 l45 200 14 370 c21 562
22 571 76 647 20 28 68 57 95 58 7 0 13 -34 17 -87z"/>
<path d="M4723 7040 c-24 -10 -33 -50 -11 -50 15 0 78 42 78 53 0 10 -40 8
-67 -3z"/>
<path d="M4940 7045 c0 -6 97 -55 110 -55 16 0 12 18 -10 40 -13 13 -33 20
-60 20 -22 0 -40 -2 -40 -5z"/>
</g>
</svg>
